# xmcd
#
# Track frame offsets: 
#        150
#        13443
#        30469
#        46825
#        58653
#        76169
#        88541
#        99666
#        117265
#        129894
#        144670
#        157327
#
# Disc length: 2326 seconds
#
# Revision: 0
# Processed by: cddbd v1.5.2PL0 Copyright (c) Steve Scherf et al.
# Submitted via: ExactAudioCopy v0.99pb4
#
DISCID=9a09140c
DTITLE=Fonograf - Country
DYEAR=1979
DGENRE=Country
TTITLE0=Письмо издалека
TTITLE1=Скажи,что не сердишься
TTITLE2=Цветок печали
TTITLE3=Девочка из провинции
TTITLE4=Где-то живешь ты 
TTITLE5=Первый трамвай
TTITLE6=Толкни пивка
TTITLE7=О, моя милая
TTITLE8=Она сидела в первом ряду
TTITLE9=Стар я как земля
TTITLE10=Все деревья не вырубай
TTITLE11=Против ветра
EXTD=
EXTT0=
EXTT1=
EXTT2=
EXTT3=
EXTT4=
EXTT5=
EXTT6=
EXTT7=
EXTT8=
EXTT9=
EXTT10=
EXTT11=
PLAYORDER=
